<svg id="Layer_1" data-name="Layer 1" xmlns="http://www.w3.org/2000/svg" viewBox="0 0 424.1209 80">
  <defs>
    <style>
      .cls-1 {
        fill: #ced6e5;
      }

      .cls-1, .cls-2, .cls-3 {
        fill-rule: evenodd;
      }

      .cls-2 {
        fill: #203a7f;
      }

      .cls-3 {
        fill: #fefefe;
      }
    </style>
  </defs>
  <title>AHK_DE</title>
  <g>
    <path d="M186.7521,24.54h2.6636a9.2213,9.2213,0,0,0,1.6972-.1587,3.3265,3.3265,0,0,0,2.6007-2.4185,9.2529,9.2529,0,0,0,.4181-3.0085q.1207-5.6267-4.716-5.5158h-2.6636V24.54Zm1.813-9.769h.847a3.2972,3.2972,0,0,1,1.4019.2607,1.9835,1.9835,0,0,1,.8162.8174,7.2761,7.2761,0,0,1,.496,3.1052,6.0971,6.0971,0,0,1-.6579,3.3946,2.3431,2.3431,0,0,1-2.0563.8588h-.847V14.7711Zm12.9912,8.4008a3.5833,3.5833,0,0,1-1.4233.293,2.3117,2.3117,0,0,1-1.3171-.3728,2.7922,2.7922,0,0,1-.8586-.8611c-.1039-.1821-.2008-.3591-.281-.5282-.0721-.1816-.1359-.3614-.19-.5361a3.4269,3.4269,0,0,1-.1559-.9389h4.4092v-.4311q0-3.0121-2.8239-3.0925a2.9829,2.9829,0,0,0-2.4427.9817,4.0937,4.0937,0,0,0-.7453,2.6174q.0282,4.36,3.7453,4.4139a6.5007,6.5007,0,0,0,2.0836-.3062v-1.239Zm-4.2154-4.006a1.7176,1.7176,0,0,1,.3518-.8448,1.2857,1.2857,0,0,1,1.0937-.4921,1.59,1.59,0,0,1,.69.1274,1.1578,1.1578,0,0,1,.3969.3438,1.7327,1.7327,0,0,1,.23.8657ZM207.8715,24.54h1.7162V16.8817h-1.7162v3.3142a4.1668,4.1668,0,0,1-.4406,1.87,2.266,2.266,0,0,1-.5516.6884,1.1318,1.1318,0,0,1-.77.293.5812.5812,0,0,1-.5978-.325,3.877,3.877,0,0,1-.1712-1.4666V16.8817h-1.7161v5.3068a2.7383,2.7383,0,0,0,.6083,1.9168,1.83,1.83,0,0,0,1.4018.6119,2.1418,2.1418,0,0,0,.9094-.18,2.8822,2.8822,0,0,0,.64-.4158,2.4061,2.4061,0,0,0,.4194-.5361,1.8865,1.8865,0,0,0,.2351-.4771h.0329V24.54Zm8.497-1.21a2.3839,2.3839,0,0,1-.802.1343,1.0668,1.0668,0,0,1-.625-.1663.7774.7774,0,0,1-.3423-.37,2.7544,2.7544,0,0,1-.2021-1.1856v-3.625h2.1992V16.8817h-2.1992v-2.89h0l-1.715,1.075v1.8153h-1.4492v1.2365h1.4492v4.4861a3.1732,3.1732,0,0,0,.0955.7935,1.979,1.979,0,0,0,.3119.6922,1.538,1.538,0,0,0,.6969.4476,3.127,3.127,0,0,0,1.1575.18,7.6066,7.6066,0,0,0,1.4244-.1348V23.3306Zm5.4-6.3368c-.1771-.0554-.4051-.1228-.6839-.1948a6.8869,6.8869,0,0,0-.9945-.0949,2.9924,2.9924,0,0,0-1.9311.5742,2.0155,2.0155,0,0,0-.7286,1.6759,1.8975,1.8975,0,0,0,.5067,1.29,5.19,5.19,0,0,0,.5149.5175c.1984.1582.3923.3085.5764.4512.4265.2645.7937.5117,1.1019.7373a1.0433,1.0433,0,0,1,.4855.692.5858.5858,0,0,1-.4712.5681,2.9249,2.9249,0,0,1-.8044.1264,3.4222,3.4222,0,0,1-1.017-.1584,3.0009,3.0009,0,0,1-.4475-.1663c-.156-.0509-.2953-.0992-.4159-.1417v1.5409c.1773.0534.4266.116.7454.1882a7.628,7.628,0,0,0,1.2178.118,3.2287,3.2287,0,0,0,2.0219-.5821,2.0134,2.0134,0,0,0,.7749-1.7209,2.0421,2.0421,0,0,0-.4938-1.3677,4.7114,4.7114,0,0,0-1.1233-.9331q-.6287-.4021-1.0994-.724a1.5426,1.5426,0,0,1-.3733-.3545.5311.5311,0,0,1-.1606-.3377.5943.5943,0,0,1,.3969-.5341,1.6563,1.6563,0,0,1,.756-.1734,2.914,2.914,0,0,1,1.0571.2068q.4375.2125.5892.3047V16.9938Zm7.7787,6.2729a3.4912,3.4912,0,0,1-1.2435.1981,2.78,2.78,0,0,1-1.4221-.3375,2.9512,2.9512,0,0,1-.9438-.7937,4.0006,4.0006,0,0,1-.5149-1.1078,4.142,4.142,0,0,1-.176-1.1719,2.8146,2.8146,0,0,1,.3672-1.4987,1.2025,1.2025,0,0,1,1.0582-.5989.9645.9645,0,0,1,.9225.489,2.74,2.74,0,0,1,.1984,1.0582h1.83a5.2045,5.2045,0,0,0-.1053-1.0452,3.7,3.7,0,0,0-.1734-.5046,2.4506,2.4506,0,0,0-1.135-1.03,3.8721,3.8721,0,0,0-1.4045-.22,3.1577,3.1577,0,0,0-2.5831,1.0763,3.9992,3.9992,0,0,0-.8044,2.5925,4.28,4.28,0,0,0,1.1458,3.3061,3.9974,3.9974,0,0,0,2.82,1.0381,7.14,7.14,0,0,0,2.1637-.3593v-1.091Zm1.4944,1.2734h1.7161V21.2233a4.1014,4.1014,0,0,1,.4557-1.88,2.254,2.254,0,0,1,.5516-.7159,1.22,1.22,0,0,1,.7535-.2518.64.64,0,0,1,.6308.292,5.0717,5.0717,0,0,1,.1392,1.4941V24.54h1.7164V19.2285a2.822,2.822,0,0,0-.58-1.9333,1.9635,1.9635,0,0,0-1.44-.591,2.2394,2.2394,0,0,0-.8681.1584,2.6913,2.6913,0,0,0-.6415.4158,2.59,2.59,0,0,0-.42.5173,4.1037,4.1037,0,0,0-.2656.5127h-.03v-4.87h-1.7185V24.54Zm7.996-3.2847h5.7863V19.5392h-5.7863v1.7161Zm7.8485,3.2847h3.3105a7.396,7.396,0,0,0,1.2285-.11,3.6848,3.6848,0,0,0,1.1587-.4242,2.1439,2.1439,0,0,0,.874-.927,3.6126,3.6126,0,0,0,.33-1.6124,3.3886,3.3886,0,0,0-.2221-1.3346,2.5093,2.5093,0,0,0-1.3441-1.3194,3.3425,3.3425,0,0,0-.7713-.18V18.6a3.0367,3.0367,0,0,0,1.1362-.7072,2.1439,2.1439,0,0,0,.4749-.7375,3.0209,3.0209,0,0,0,.1747-1.1075A2.7677,2.7677,0,0,0,252.94,14.68a2.0867,2.0867,0,0,0-.7748-.7937,2.6545,2.6545,0,0,0-.9945-.37,7.0278,7.0278,0,0,0-.9815-.0781h-3.3035V24.54Zm1.8116-9.769h1.1776a2.3128,2.3128,0,0,1,.3756.0328,1.4871,1.4871,0,0,1,.6106.2434,1.0334,1.0334,0,0,1,.4051.4644,2.4787,2.4787,0,0,1,.1241.8548,2.09,2.09,0,0,1-.1394.8342,1.07,1.07,0,0,1-.4053.502,1.6409,1.6409,0,0,1-.6116.2195,4.2008,4.2008,0,0,1-.802.0722h-.7348V14.7711Zm0,4.553h.7383a3.3464,3.3464,0,0,1,1.8415.4407,1.7794,1.7794,0,0,1,.66,1.5409,1.9529,1.9529,0,0,1-.2092.9654,1.575,1.575,0,0,1-.574.5989,2.4639,2.4639,0,0,1-.8066.2574,5.2568,5.2568,0,0,1-.912.08h-.7383V19.3241ZM259.55,24.54h1.6511V19.0855q.0177-2.3651-2.6917-2.3814-2.824.066-2.82,2.44h1.6842a1.3717,1.3717,0,0,1,.22-.79,1.031,1.031,0,0,1,.9164-.398.9015.9015,0,0,1,.85.4135,2.3516,2.3516,0,0,1,.19,1.0028v.7614a9.1739,9.1739,0,0,0-1.0749.0453,6.8006,6.8006,0,0,0-1.3818.29,2.6789,2.6789,0,0,0-1.1786.7512,2.1775,2.1775,0,0,0-.5211,1.4931,1.8371,1.8371,0,0,0,.6274,1.4565,2.4106,2.4106,0,0,0,1.5614.5468,3.4868,3.4868,0,0,0,.7771-.118,2.1454,2.1454,0,0,0,.5658-.2413,1.8946,1.8946,0,0,0,.5929-.7047h.0318v.887Zm-2.4672-1.9974a.9559.9559,0,0,1,.2528-.66,1.5054,1.5054,0,0,1,.5786-.4313,4.4566,4.4566,0,0,1,1.6359-.293,5.3236,5.3236,0,0,1-.0614.7889,3.6441,3.6441,0,0,1-.2822.737,1.644,1.644,0,0,1-.4714.5531,1.2152,1.2152,0,0,1-.73.2276.8157.8157,0,0,1-.9224-.9221Zm6.5222,1.9974h1.716V13.4385h-1.716V24.54Zm8.4626-1.21a2.3841,2.3841,0,0,1-.8021.1343,1.0669,1.0669,0,0,1-.6249-.1663.7864.7864,0,0,1-.3435-.37,2.7572,2.7572,0,0,1-.2009-1.1856v-3.625h2.1993V16.8817H270.096v-2.89h0l-1.7161,1.075v1.8153h-1.4482v1.2365H268.38v4.4861a3.12,3.12,0,0,0,.0968.7935,1.9517,1.9517,0,0,0,.3106.6922,1.5443,1.5443,0,0,0,.6969.4476,3.1291,3.1291,0,0,0,1.1585.18,7.6069,7.6069,0,0,0,1.4245-.1348V23.3306Zm1.6571,1.21h1.716V16.8817h-1.716V24.54Zm0-9.35h1.716V13.4385h-1.716V15.19Zm7.9063,1.8039c-.1771-.0554-.404-.1228-.6826-.1948a6.922,6.922,0,0,0-.9958-.0949,2.9912,2.9912,0,0,0-1.93.5742,2.0163,2.0163,0,0,0-.73,1.6759,1.8992,1.8992,0,0,0,.5066,1.29,5.3329,5.3329,0,0,0,.5151.5175c.1985.1582.392.3085.5764.4512.4264.2645.7937.5117,1.1031.7373a1.0406,1.0406,0,0,1,.4843.692.5848.5848,0,0,1-.4712.5681,2.9242,2.9242,0,0,1-.8044.1264,3.42,3.42,0,0,1-1.0169-.1584,2.9985,2.9985,0,0,1-.4477-.1663c-.1559-.0509-.2954-.0992-.4157-.1417v1.5409c.1771.0534.4264.116.7453.1882a7.6435,7.6435,0,0,0,1.2177.118,3.2288,3.2288,0,0,0,2.0221-.5821,2.0131,2.0131,0,0,0,.7749-1.7209,2.0427,2.0427,0,0,0-.4938-1.3677,4.7207,4.7207,0,0,0-1.1232-.9331q-.6271-.4021-1.1-.724a1.5148,1.5148,0,0,1-.3721-.3545.5269.5269,0,0,1-.1617-.3377.5957.5957,0,0,1,.3981-.5341,1.6529,1.6529,0,0,1,.756-.1734,2.9063,2.9063,0,0,1,1.0558.2068q.4375.2125.5894.3047V16.9938Zm7.7788,6.2729a3.4944,3.4944,0,0,1-1.2439.1981,2.7726,2.7726,0,0,1-1.4207-.3375,2.9419,2.9419,0,0,1-.9449-.7937,3.9937,3.9937,0,0,1-.515-1.1078,4.1514,4.1514,0,0,1-.1761-1.1719,2.8146,2.8146,0,0,1,.3675-1.4987,1.203,1.203,0,0,1,1.0595-.5989.9628.9628,0,0,1,.9213.489,2.7451,2.7451,0,0,1,.2,1.0582h1.8283a5.2043,5.2043,0,0,0-.1049-1.0452,3.7183,3.7183,0,0,0-.1737-.5046,2.16,2.16,0,0,0-.2822-.399,2.2055,2.2055,0,0,0-.8528-.631,3.8676,3.8676,0,0,0-1.4043-.22,3.1532,3.1532,0,0,0-2.5819,1.0763,3.9919,3.9919,0,0,0-.8055,2.5925,4.28,4.28,0,0,0,1.1456,3.3061,3.9983,3.9983,0,0,0,2.8206,1.0381,7.1431,7.1431,0,0,0,2.1638-.3593v-1.091Zm1.494,1.2734H292.62V21.2233a4.0969,4.0969,0,0,1,.456-1.88,2.2519,2.2519,0,0,1,.5515-.7159,1.22,1.22,0,0,1,.7537-.2518.64.64,0,0,1,.6306.292,5.0688,5.0688,0,0,1,.1395,1.4941V24.54h1.716V19.2285a2.8136,2.8136,0,0,0-.58-1.9333,1.9628,1.9628,0,0,0-1.44-.591,2.24,2.24,0,0,0-.8682.1584,2.6844,2.6844,0,0,0-.6413.4158,2.5963,2.5963,0,0,0-.4206.5173,4.1037,4.1037,0,0,0-.2656.5127h-.03v-4.87h-1.7185V24.54Zm13.7128-1.3682a3.5935,3.5935,0,0,1-1.4244.293,2.31,2.31,0,0,1-1.3157-.3728,2.7658,2.7658,0,0,1-.8588-.8611c-.104-.1821-.2007-.3591-.2811-.5282-.0718-.1816-.1369-.3614-.19-.5361a3.3744,3.3744,0,0,1-.1559-.9389h4.4078v-.4311q0-3.0121-2.8229-3.0925a2.9808,2.9808,0,0,0-2.4424.9817,4.0864,4.0864,0,0,0-.7465,2.6174q.0284,4.36,3.7466,4.4139a6.5,6.5,0,0,0,2.0835-.3062v-1.239Zm-4.2155-4.006a1.7258,1.7258,0,0,1,.3508-.8448,1.2883,1.2883,0,0,1,1.0951-.4921,1.5837,1.5837,0,0,1,.6886.1274,1.1382,1.1382,0,0,1,.3969.3438,1.7209,1.7209,0,0,1,.23.8657ZM311.54,24.54h1.812V19.47h3.8667V24.54h1.813V13.4385h-1.813v4.6041h-3.8667V13.4385H311.54V24.54Zm13.8178,0h1.6513V19.0855q.016-2.3651-2.6919-2.3814-2.8238.066-2.8215,2.44H323.18a1.3851,1.3851,0,0,1,.22-.79,1.0338,1.0338,0,0,1,.9177-.398.8993.8993,0,0,1,.8493.4135,2.3469,2.3469,0,0,1,.1914,1.0028v.7614a9.1792,9.1792,0,0,0-1.0759.0453,6.79,6.79,0,0,0-1.3808.29,2.6849,2.6849,0,0,0-1.18.7512,2.1786,2.1786,0,0,0-.52,1.4931,1.8374,1.8374,0,0,0,.6271,1.4565,2.4078,2.4078,0,0,0,1.56.5468,3.49,3.49,0,0,0,.7783-.118,2.1436,2.1436,0,0,0,.5656-.2413,1.8785,1.8785,0,0,0,.5918-.7047h.0331v.887ZM322.89,22.5427a.96.96,0,0,1,.2516-.66,1.5089,1.5089,0,0,1,.58-.4313,4.4559,4.4559,0,0,1,1.6358-.293,5.3275,5.3275,0,0,1-.0626.7889,3.6941,3.6941,0,0,1-.2811.737,1.6709,1.6709,0,0,1-.4711.5531,1.216,1.216,0,0,1-.73.2276.8158.8158,0,0,1-.9225-.9221Zm6.4405,1.9974h1.7161V21.2233a4.1145,4.1145,0,0,1,.456-1.88,2.2567,2.2567,0,0,1,.5528-.7159,1.2176,1.2176,0,0,1,.7535-.2518.6389.6389,0,0,1,.6294.292,5.0643,5.0643,0,0,1,.1395,1.4941V24.54h1.716V19.2285a2.82,2.82,0,0,0-.5787-1.9333,1.9651,1.9651,0,0,0-1.44-.591,2.1711,2.1711,0,0,0-.8692.1623,2.8506,2.8506,0,0,0-.64.4145,2.652,2.652,0,0,0-.4215.5208,4.5559,4.5559,0,0,0-.2658.5089h-.0284v-1.429h-1.72V24.54Zm12.3236,0h1.7164V13.4385h-1.7164v4.3572h-.04a2.1672,2.1672,0,0,0-.5847-.6907,1.6991,1.6991,0,0,0-.5173-.3059,2.74,2.74,0,0,0-.7453-.0949,2.033,2.033,0,0,0-1.9146,1.1566,5.815,5.815,0,0,0-.6226,2.85,6.3761,6.3761,0,0,0,.5316,2.7967,2.0932,2.0932,0,0,0,2.0055,1.21,2.0263,2.0263,0,0,0,1.2249-.4692,1.8855,1.8855,0,0,0,.6223-.765h.04V24.54ZM339.06,20.7132a7.4919,7.4919,0,0,1,.0613-.9649,3.861,3.861,0,0,1,.1689-.8423,1.5824,1.5824,0,0,1,.3887-.5976.9211.9211,0,0,1,.6542-.222,1.0828,1.0828,0,0,1,1.0381.7713,5.3754,5.3754,0,0,1,.2834,1.8555,5.256,5.256,0,0,1-.2834,1.7563,1.7091,1.7091,0,0,1-.4108.6142.8419.8419,0,0,1-.6273.2528.924.924,0,0,1-.6542-.2528,1.5866,1.5866,0,0,1-.3887-.6142,4.1633,4.1633,0,0,1-.1689-.8575,6.9858,6.9858,0,0,1-.0613-.8987Zm12.0282,2.4587a3.5882,3.5882,0,0,1-1.4243.293,2.31,2.31,0,0,1-1.3158-.3728,2.7663,2.7663,0,0,1-.8586-.8611c-.104-.1821-.2009-.3591-.2811-.5282-.0721-.1816-.1369-.3614-.19-.5361a3.3744,3.3744,0,0,1-.1559-.9389H351.27v-.4311q0-3.0121-2.8229-3.0925a2.9809,2.9809,0,0,0-2.4426.9817,4.0932,4.0932,0,0,0-.7464,2.6174q.0282,4.36,3.7464,4.4139a6.4991,6.4991,0,0,0,2.0833-.3062v-1.239Zm-4.2154-4.006a1.7191,1.7191,0,0,1,.352-.8448,1.2846,1.2846,0,0,1,1.0939-.4921,1.5827,1.5827,0,0,1,.6884.1274,1.1336,1.1336,0,0,1,.3969.3438,1.7322,1.7322,0,0,1,.2314.8657Zm6.3792,5.3742h1.7162V13.4385h-1.7162V24.54Zm7.9077-7.5463c-.1773-.0554-.4051-.1228-.684-.1948a6.885,6.885,0,0,0-.9944-.0949,2.9915,2.9915,0,0,0-1.9311.5742,2.0152,2.0152,0,0,0-.7287,1.6759,1.8981,1.8981,0,0,0,.5067,1.29,5.1645,5.1645,0,0,0,.515.5175q.2975.2373.5763.4512c.4264.2645.7937.5117,1.1021.7373a1.0435,1.0435,0,0,1,.4854.692.5873.5873,0,0,1-.4724.5681,2.9251,2.9251,0,0,1-.8045.1264,3.4175,3.4175,0,0,1-1.0156-.1584,2.951,2.951,0,0,1-.4476-.1663c-.1559-.0509-.2954-.0992-.4158-.1417v1.5409c.1773.0534.4262.116.7453.1882a7.6123,7.6123,0,0,0,1.2178.118,3.2337,3.2337,0,0,0,2.0219-.5821,2.0123,2.0123,0,0,0,.7738-1.7209,2.0349,2.0349,0,0,0-.4926-1.3677,4.74,4.74,0,0,0-1.1245-.9331c-.4181-.268-.7853-.5091-1.0985-.724a1.52,1.52,0,0,1-.3731-.3545.5249.5249,0,0,1-.1607-.3377.5943.5943,0,0,1,.3969-.5341,1.6569,1.6569,0,0,1,.7561-.1734,2.9122,2.9122,0,0,1,1.0569.2068c.2918.1417.4878.2434.59.3047V16.9938Zm2.0987,7.5463h1.7174V20.6849h.0318L367.63,24.54h2.0728l-2.9954-4.3442,2.7438-3.3142h-2.0729l-2.4023,2.9277h0V13.4385h-1.7174V24.54Zm11.5358,0h1.6525V19.0855q.0156-2.3651-2.6918-2.3814-2.824.066-2.8217,2.44h1.6843a1.3726,1.3726,0,0,1,.22-.79,1.0333,1.0333,0,0,1,.9177-.398.9.9,0,0,1,.8493.4135,2.3536,2.3536,0,0,1,.19,1.0028v.7614a9.1709,9.1709,0,0,0-1.0747.0453,6.785,6.785,0,0,0-1.3807.29,2.6849,2.6849,0,0,0-1.18.7512,2.1829,2.1829,0,0,0-.5208,1.4931,1.8382,1.8382,0,0,0,.6283,1.4565,2.4057,2.4057,0,0,0,1.56.5468,3.4762,3.4762,0,0,0,.7771-.118,2.1283,2.1283,0,0,0,.566-.2413,1.8954,1.8954,0,0,0,.5928-.7047h.0318v.887Zm-2.4661-1.9974a.9543.9543,0,0,1,.2516-.66,1.516,1.516,0,0,1,.5786-.4313,4.4615,4.4615,0,0,1,1.6359-.293,5.3236,5.3236,0,0,1-.0614.7889,3.701,3.701,0,0,1-.2809.737,1.66,1.66,0,0,1-.4726.5531,1.2112,1.2112,0,0,1-.7287.2276.8157.8157,0,0,1-.9224-.9221Zm6.3073,1.9974h1.7208V21.2233a4.6152,4.6152,0,0,1,.3969-1.88,2.1582,2.1582,0,0,1,.4938-.7159,1.05,1.05,0,0,1,.6943-.2518.6714.6714,0,0,1,.6616.292,4.5283,4.5283,0,0,1,.1559,1.4941V24.54h1.716V21.2233a4.634,4.634,0,0,1,.3969-1.88,2.3523,2.3523,0,0,1,.4939-.7159,1.0494,1.0494,0,0,1,.6944-.2518.6731.6731,0,0,1,.6626.292,4.5748,4.5748,0,0,1,.1548,1.4941V24.54h1.7221V19.2285a2.7925,2.7925,0,0,0-.5976-1.9333,2.1971,2.1971,0,0,0-2.9258-.0651,2.7707,2.7707,0,0,0-.7086.9979H384.33a1.8929,1.8929,0,0,0-.6921-1.1691,2.124,2.124,0,0,0-1.2366-.3548,2.2839,2.2839,0,0,0-.809.1292,1.706,1.706,0,0,0-.574.3543,2.3762,2.3762,0,0,0-.3946.4311c-.0932.1643-.1712.3118-.2327.44h-.0331V16.8817h-1.7231V24.54Zm12.2079,0h1.722V21.2233a4.6329,4.6329,0,0,1,.3957-1.88,2.16,2.16,0,0,1,.4938-.7159,1.0522,1.0522,0,0,1,.6944-.2518.6732.6732,0,0,1,.6627.292,4.5608,4.5608,0,0,1,.1559,1.4941V24.54h1.7161V21.2233a4.6172,4.6172,0,0,1,.3967-1.88,2.33,2.33,0,0,1,.4925-.7159,1.0527,1.0527,0,0,1,.6947-.2518.673.673,0,0,1,.6625.292,4.5608,4.5608,0,0,1,.1559,1.4941V24.54h1.7209V19.2285a2.79,2.79,0,0,0-.5978-1.9333,2.1966,2.1966,0,0,0-2.9254-.0651,2.7487,2.7487,0,0,0-.7075.9979h-.0379a1.8935,1.8935,0,0,0-.6921-1.1691,2.12,2.12,0,0,0-1.2353-.3548,2.2965,2.2965,0,0,0-.81.1292,1.706,1.706,0,0,0-.574.3543,2.4239,2.4239,0,0,0-.3934.4311c-.0945.1643-.1723.3118-.2337.44h-.032V16.8817h-1.7243V24.54Zm17.7049-1.3682a3.584,3.584,0,0,1-1.4234.293,2.3132,2.3132,0,0,1-1.3168-.3728,2.7734,2.7734,0,0,1-.8574-.8611c-.1053-.1821-.2021-.3591-.2811-.5282-.0732-.1816-.1369-.3614-.1914-.5361a3.4208,3.4208,0,0,1-.1548-.9389h4.408v-.4311q0-3.0121-2.8243-3.0925a2.9825,2.9825,0,0,0-2.4423.9817,4.0922,4.0922,0,0,0-.7453,2.6174q.0282,4.36,3.7463,4.4139a6.4989,6.4989,0,0,0,2.0825-.3062v-1.239Zm-4.2142-4.006a1.7258,1.7258,0,0,1,.3508-.8448,1.2869,1.2869,0,0,1,1.0937-.4921,1.5888,1.5888,0,0,1,.69.1274,1.1446,1.1446,0,0,1,.3967.3438,1.7319,1.7319,0,0,1,.2305.8657ZM410.6,24.54h1.716V21.177q-.0513-2.6375,2.4354-2.6088V16.7041a2.2923,2.2923,0,0,0-1.6061.5152,2.8463,2.8463,0,0,0-.4346.502,5.9764,5.9764,0,0,0-.3568.573h-.0379V16.8817H410.6V24.54ZM186.7369,39.9167h1.715V32.2585h-1.715v7.6582Zm0-9.3506h1.715v-1.75h-1.715v1.75Zm4.0831,9.3506h1.716V36.5992a4.1077,4.1077,0,0,1,.4561-1.8794,2.1218,2.1218,0,0,1,.5528-.7156,1.2037,1.2037,0,0,1,.7535-.253.6186.6186,0,0,1,.6294.293,4.4739,4.4739,0,0,1,.1394,1.4931v4.38h1.7161V34.6038a2.7283,2.7283,0,0,0-.5788-1.9333,1.9268,1.9268,0,0,0-1.44-.5892,2.097,2.097,0,0,0-.8694.16,2.4122,2.4122,0,0,0-.64.4161,2.3292,2.3292,0,0,0-.4217.5208,4.1945,4.1945,0,0,0-.2658.5089h-.03v-1.429H190.82v7.6582Zm13.1905,0h6.3946V38.4875h-4.5827V34.8782h4.2261v-1.427h-4.2261V30.2446h4.4621v-1.429h-6.2739V39.9167ZM216.1028,32.37a7.0269,7.0269,0,0,0-.6839-.1958,5.0312,5.0312,0,0,0-.9945-.0933,2.9613,2.9613,0,0,0-1.9311.574,2.0106,2.0106,0,0,0-.7289,1.6759,1.8946,1.8946,0,0,0,.5067,1.29,4.9451,4.9451,0,0,0,.5151.5173,6.9562,6.9562,0,0,0,.5763.45c.4168.2787.7973.5089,1.1019.738.3106.2314.4855.4651.4855.6907a.5709.5709,0,0,1-.4714.57,2.9279,2.9279,0,0,1-.8043.1251,3.4957,3.4957,0,0,1-1.0169-.1582c-.1488-.045-.2964-.1063-.4476-.1653-.1525-.0605-.2955-.1-.4158-.1429v1.5422c.1771.0534.4251.12.7453.1882a6.2647,6.2647,0,0,0,1.2178.118,3.237,3.237,0,0,0,2.0221-.5824,2.23,2.23,0,0,0,.281-3.09,4.9877,4.9877,0,0,0-1.1232-.9321c-.4229-.2619-.7866-.51-1.1-.7253a1.7532,1.7532,0,0,1-.3731-.353.5788.5788,0,0,1-.1607-.3377A.5961.5961,0,0,1,213.7,33.54a1.6231,1.6231,0,0,1,.756-.1747,2.6838,2.6838,0,0,1,1.0572.2065,5.9,5.9,0,0,1,.5894.3057V32.37Zm6.51,6.3368a2.3753,2.3753,0,0,1-.8007.1335,1.1492,1.1492,0,0,1-.6249-.1653.85.85,0,0,1-.3438-.371,2.8649,2.8649,0,0,1-.2008-1.1843V33.494h2.1982V32.2585h-2.1982V29.367h0l-1.716,1.076v1.8156h-1.4481V33.494h1.4481v4.4866a3.2254,3.2254,0,0,0,.0969.7937,1.8274,1.8274,0,0,0,.3105.6912,1.5168,1.5168,0,0,0,.6969.4476,3.2907,3.2907,0,0,0,1.1587.1808,7.6123,7.6123,0,0,0,1.4231-.1345V38.7072Zm1.6571,1.21h1.7161V28.8156H224.27V39.9167Zm7.8485,0h1.6522V34.4624c0-1.5768-.8857-2.3967-2.6928-2.3811-1.8815.0165-2.8206.8553-2.8206,2.44h1.6843a1.3891,1.3891,0,0,1,.22-.7912,1.0074,1.0074,0,0,1,.9165-.397.8663.8663,0,0,1,.85.4135,2.2514,2.2514,0,0,1,.19,1.0028v.7617a8.4783,8.4783,0,0,0-1.075.0448,6.5849,6.5849,0,0,0-1.3805.29,2.6915,2.6915,0,0,0-1.18.751,2.1655,2.1655,0,0,0-.5207,1.4938,1.8158,1.8158,0,0,0,.6284,1.4554,2.3112,2.3112,0,0,0,1.56.548,2.8245,2.8245,0,0,0,.7772-.118,1.8117,1.8117,0,0,0,.5657-.2424,1.7473,1.7473,0,0,0,.5928-.705h.032v.8881Zm-2.4662-1.9987a.9882.9882,0,0,1,.2516-.6587,1.5085,1.5085,0,0,1,.5787-.4323,4.33,4.33,0,0,1,1.6359-.2917,3.9112,3.9112,0,0,1-.0614.7879,2.8542,2.8542,0,0,1-.2813.738,1.5965,1.5965,0,0,1-.4723.5516,1.21,1.21,0,0,1-.7287.2279.8161.8161,0,0,1-.9225-.9227Zm6.4406,1.9987h1.716V36.5992a4.1077,4.1077,0,0,1,.4561-1.8794,2.125,2.125,0,0,1,.5528-.7156,1.2026,1.2026,0,0,1,.7521-.253.62.62,0,0,1,.6308.293,4.4739,4.4739,0,0,1,.1394,1.4931v4.38h1.7161V34.6038a2.7343,2.7343,0,0,0-.5788-1.9333,1.9278,1.9278,0,0,0-1.4409-.5892,2.0947,2.0947,0,0,0-.868.16,2.438,2.438,0,0,0-.6413.4161,2.3234,2.3234,0,0,0-.4205.5208,4.054,4.054,0,0,0-.2658.5089h-.03v-1.429h-1.7185v7.6582Zm12.3236,0h1.7162V28.8156h-1.7162v4.3572h-.04a2.21,2.21,0,0,0-.5848-.6925,1.5462,1.5462,0,0,0-.5171-.3057,2.2949,2.2949,0,0,0-.7453-.0933,2.05,2.05,0,0,0-1.9147,1.1551,6.0342,6.0342,0,0,0-.6224,2.8511,6.4431,6.4431,0,0,0,.5316,2.7967,2.05,2.05,0,0,0,2.0055,1.21,1.885,1.885,0,0,0,1.2247-.47,1.9164,1.9164,0,0,0,.6226-.7645h.04v1.0572Zm-2.596-3.8267a8.139,8.139,0,0,1,.0627-.9649,3.6674,3.6674,0,0,1,.1687-.8423,1.5,1.5,0,0,1,.3887-.5989.9157.9157,0,0,1,.6544-.222,1.0705,1.0705,0,0,1,1.037.7726,5.2262,5.2262,0,0,1,.2846,1.8555,4.9923,4.9923,0,0,1-.2846,1.7563,1.6481,1.6481,0,0,1-.41.6142.87.87,0,0,1-.6271.2515.9286.9286,0,0,1-.6544-.2515,1.5014,1.5014,0,0,1-.3887-.6142,3.9558,3.9558,0,0,1-.1687-.8586,7.6534,7.6534,0,0,1-.0627-.8977Zm6.4737,5.4166h1.493l.7381-3.7916h-1.95l-.2811,3.7916Zm8.9292-1.59h6.039V38.4875h-4.2273V28.8156h-1.8116V39.9167Zm12.712-1.368a3.4057,3.4057,0,0,1-1.423.292,2.2744,2.2744,0,0,1-1.3171-.3723,2.746,2.746,0,0,1-.8586-.8606,4.4058,4.4058,0,0,1-.281-.528,4.86,4.86,0,0,1-.19-.5363,3.3378,3.3378,0,0,1-.156-.9389h4.4091v-.4313c0-2.0088-.9412-3.067-2.8239-3.092a2.8873,2.8873,0,0,0-2.4424.9817,4.07,4.07,0,0,0-.7455,2.6169c.02,2.9055,1.2686,4.3859,3.7454,4.4141a6.312,6.312,0,0,0,2.0833-.3062v-1.239Zm-4.2151-4.006a1.711,1.711,0,0,1,.3518-.8446,1.2768,1.2768,0,0,1,1.0938-.4936,1.4749,1.4749,0,0,1,.6884.1287.9523.9523,0,0,1,.3981.3438,1.622,1.622,0,0,1,.23.8657Zm10.6771,4.1644a2.3744,2.3744,0,0,1-.8008.1335,1.1494,1.1494,0,0,1-.6247-.1653.8492.8492,0,0,1-.3437-.371,2.8606,2.8606,0,0,1-.2009-1.1843V33.494h2.198V32.2585h-2.198V29.367h0l-1.716,1.076v1.8156h-1.4482V33.494h1.4482v4.4866a3.294,3.294,0,0,0,.0966.7937,1.8316,1.8316,0,0,0,.3106.6912,1.5175,1.5175,0,0,0,.6969.4476,3.2922,3.2922,0,0,0,1.1587.1808,7.6045,7.6045,0,0,0,1.4233-.1345V38.7072Zm5.9552,0a2.375,2.375,0,0,1-.8008.1335,1.149,1.149,0,0,1-.6247-.1653.851.851,0,0,1-.3438-.371,2.8649,2.8649,0,0,1-.2008-1.1843V33.494h2.1982V32.2585h-2.1982V29.367h0l-1.716,1.076v1.8156h-1.4481V33.494h1.4481v4.4866a3.2316,3.2316,0,0,0,.0968.7937,1.83,1.83,0,0,0,.3106.6912,1.517,1.517,0,0,0,.6968.4476,3.2915,3.2915,0,0,0,1.1588.1808,7.6133,7.6133,0,0,0,1.4231-.1345V38.7072Zm1.6571,1.21h1.716V28.8156H288.01V39.9167Zm7.8485,0h1.6522V34.4624c0-1.5768-.8857-2.3967-2.6928-2.3811-1.8815.0165-2.82.8553-2.82,2.44h1.6843a1.3871,1.3871,0,0,1,.22-.7912,1.0071,1.0071,0,0,1,.9164-.397.8663.8663,0,0,1,.85.4135,2.2514,2.2514,0,0,1,.19,1.0028v.7617a8.4748,8.4748,0,0,0-1.0749.0448,6.5871,6.5871,0,0,0-1.3808.29,2.69,2.69,0,0,0-1.18.751,2.1643,2.1643,0,0,0-.5208,1.4938,1.8158,1.8158,0,0,0,.6284,1.4554,2.3112,2.3112,0,0,0,1.56.548,2.8253,2.8253,0,0,0,.7772-.118,1.813,1.813,0,0,0,.5657-.2424,1.7484,1.7484,0,0,0,.5928-.705h.032v.8881Zm-2.4662-1.9987a.9882.9882,0,0,1,.2516-.6587,1.5075,1.5075,0,0,1,.5787-.4323,4.33,4.33,0,0,1,1.6359-.2917,3.9112,3.9112,0,0,1-.0614.7879,2.863,2.863,0,0,1-.2811.738,1.6,1.6,0,0,1-.4724.5516,1.21,1.21,0,0,1-.7289.2279.816.816,0,0,1-.9224-.9227Zm6.44,1.9987h1.7162V36.5992a4.1075,4.1075,0,0,1,.456-1.8794,2.125,2.125,0,0,1,.5528-.7156,1.2033,1.2033,0,0,1,.7524-.253.6193.6193,0,0,1,.6306.293,4.4692,4.4692,0,0,1,.1395,1.4931v4.38h1.7161V34.6038a2.7349,2.7349,0,0,0-.5787-1.9333,1.9283,1.9283,0,0,0-1.4411-.5892,2.0947,2.0947,0,0,0-.868.16,2.443,2.443,0,0,0-.6414.4161,2.3227,2.3227,0,0,0-.42.5208,4.054,4.054,0,0,0-.2658.5089h-.03v-1.429h-1.7187v7.6582Zm12.3237,0h1.7164V28.8156h-1.7164v4.3572h-.04a2.2124,2.2124,0,0,0-.5845-.6925,1.5475,1.5475,0,0,0-.5174-.3057,2.2949,2.2949,0,0,0-.7453-.0933,2.05,2.05,0,0,0-1.9145,1.1551,6.03,6.03,0,0,0-.6224,2.8511,6.4432,6.4432,0,0,0,.5314,2.7967,2.0505,2.0505,0,0,0,2.0055,1.21,1.8851,1.8851,0,0,0,1.2248-.47,1.9148,1.9148,0,0,0,.6224-.7645h.04v1.0572ZM309.56,36.09a8.14,8.14,0,0,1,.0626-.9649,3.66,3.66,0,0,1,.169-.8423,1.4981,1.4981,0,0,1,.3886-.5989.9154.9154,0,0,1,.6542-.222,1.0706,1.0706,0,0,1,1.0371.7726,5.2264,5.2264,0,0,1,.2845,1.8555,4.9923,4.9923,0,0,1-.2845,1.7563,1.65,1.65,0,0,1-.41.6142.87.87,0,0,1-.6273.2515.9285.9285,0,0,1-.6542-.2515,1.5,1.5,0,0,1-.3886-.6142,3.9479,3.9479,0,0,1-.169-.8586,7.6527,7.6527,0,0,1-.0626-.8977Zm6.4737,5.4166h1.493l.7381-3.7916h-1.95l-.281,3.7916Zm8.9291-1.59h6.0391V38.4875h-4.2272V28.8156h-1.8119V39.9167Zm7.43,0H334.11V32.2585h-1.7161v7.6582Zm0-9.3506H334.11v-1.75h-1.7161v1.75Zm8.4626,8.1411a2.38,2.38,0,0,1-.8019.1335,1.1557,1.1557,0,0,1-.625-.1653.8515.8515,0,0,1-.3437-.371,2.8629,2.8629,0,0,1-.2007-1.1843V33.494h2.1991V32.2585H338.885V29.367h0l-1.7164,1.076v1.8156h-1.4478V33.494h1.4478v4.4866a3.2938,3.2938,0,0,0,.097.7937,1.83,1.83,0,0,0,.3106.6912,1.5166,1.5166,0,0,0,.6967.4476,3.292,3.292,0,0,0,1.1588.1808,7.6268,7.6268,0,0,0,1.4244-.1345V38.7072Zm5.341,1.21h1.6513V34.4624c0-1.5768-.8848-2.3967-2.6918-2.3811-1.8827.0165-2.82.8553-2.82,2.44H344.02a1.38,1.38,0,0,1,.22-.7912,1.0065,1.0065,0,0,1,.9167-.397.8675.8675,0,0,1,.85.4135,2.2532,2.2532,0,0,1,.19,1.0028v.7617a8.4667,8.4667,0,0,0-1.0747.0448,6.61,6.61,0,0,0-1.3819.29,2.6874,2.6874,0,0,0-1.1789.751,2.1529,2.1529,0,0,0-.5207,1.4938,1.819,1.819,0,0,0,.627,1.4554,2.3171,2.3171,0,0,0,1.5615.548,2.8323,2.8323,0,0,0,.7772-.118,1.8389,1.8389,0,0,0,.5659-.2424,1.7469,1.7469,0,0,0,.5927-.705h.032v.8881ZM343.73,37.9181a.9849.9849,0,0,1,.2528-.6587,1.4919,1.4919,0,0,1,.5788-.4323,4.3289,4.3289,0,0,1,1.6358-.2917,3.9866,3.9866,0,0,1-.0614.7879,2.8166,2.8166,0,0,1-.2824.738,1.58,1.58,0,0,1-.4711.5516,1.2131,1.2131,0,0,1-.73.2279.816.816,0,0,1-.9224-.9227Zm10.6724,1.9987h1.7162V32.2585h-1.7162v3.3142a4.0931,4.0931,0,0,1-.4393,1.8684,2.2375,2.2375,0,0,1-.5529.69,1.1748,1.1748,0,0,1-.7688.2917.5934.5934,0,0,1-.5989-.3248,3.9786,3.9786,0,0,1-.171-1.4659V32.2585h-1.7162v5.3065a2.7268,2.7268,0,0,0,.6083,1.917,1.8439,1.8439,0,0,0,1.4032.6119,2.1025,2.1025,0,0,0,.9082-.1808,2.5176,2.5176,0,0,0,.6413-.4156,2.3354,2.3354,0,0,0,.4183-.5363,2.2417,2.2417,0,0,0,.2361-.4771h.0318v1.4326Zm9.482-1.368a3.4171,3.4171,0,0,1-1.4243.292,2.2737,2.2737,0,0,1-1.317-.3723,2.7308,2.7308,0,0,1-.8575-.8606,4.2475,4.2475,0,0,1-.281-.528,4.9008,4.9008,0,0,1-.1915-.5363,3.3772,3.3772,0,0,1-.1546-.9389h4.4079v-.4313c0-2.0088-.9413-3.067-2.8229-3.092a2.8921,2.8921,0,0,0-2.4438.9817,4.0693,4.0693,0,0,0-.7451,2.6169c.0212,2.9055,1.2685,4.3859,3.7466,4.4141a6.3177,6.3177,0,0,0,2.0833-.3062v-1.239Zm-4.2153-4.006a1.7069,1.7069,0,0,1,.3507-.8446,1.2781,1.2781,0,0,1,1.0937-.4936,1.4833,1.4833,0,0,1,.69.1287.9477.9477,0,0,1,.3969.3438,1.612,1.612,0,0,1,.23.8657Zm6.2989,5.3739h1.7148V36.5992A4.1088,4.1088,0,0,1,368.14,34.72a2.1224,2.1224,0,0,1,.5516-.7156,1.2039,1.2039,0,0,1,.7534-.253.62.62,0,0,1,.6307.293,4.5083,4.5083,0,0,1,.1395,1.4931v4.38h1.7161V34.6038a2.7289,2.7289,0,0,0-.58-1.9333,1.9235,1.9235,0,0,0-1.44-.5892,2.0907,2.0907,0,0,0-.868.16,2.418,2.418,0,0,0-.6414.4161,2.3227,2.3227,0,0,0-.42.5208,4.054,4.054,0,0,0-.2658.5089h-.03v-1.429h-1.7183v7.6582ZM193.7669,48.998h-3.6757v1.0244h2.47v3.7725a2.7268,2.7268,0,0,1-.6437.354,3.2476,3.2476,0,0,1-1.3466.2541,2.2731,2.2731,0,0,1-1.5116-.4982,2.9856,2.9856,0,0,1-.88-1.2309,6.4787,6.4787,0,0,1-.3923-1.6487,16.64,16.64,0,0,1-.1063-1.6975,7.1068,7.1068,0,0,1,.5446-2.9363,2.3967,2.3967,0,0,1,.83-1.0165,2.2572,2.2572,0,0,1,1.33-.3721,2.3891,2.3891,0,0,1,1,.177,1.6378,1.6378,0,0,1,.6249.5219,2.0378,2.0378,0,0,1,.3591.6983,3.07,3.07,0,0,1,.0945.7792h1.3619a3.1013,3.1013,0,0,0-.912-2.3008,3.4933,3.4933,0,0,0-2.5393-.9036,3.3688,3.3688,0,0,0-3.1051,1.61,7.2312,7.2312,0,0,0-.9035,3.7455,9.0881,9.0881,0,0,0,.8882,4.2473,3.5373,3.5373,0,0,0,3.4157,1.8532,4.6562,4.6562,0,0,0,2.0835-.4456,6.7847,6.7847,0,0,0,.6708-.3624,3.0843,3.0843,0,0,0,.3427-.2352V48.998Zm7.4067,5.3058c-.1582.03-.34.0765-.55.1322a3.9464,3.9464,0,0,1-.9248.08A2.1647,2.1647,0,0,1,198.4,54.13a2.6816,2.6816,0,0,1-.8067-.8718,3.9,3.9,0,0,1-.4135-1.1075,4.9289,4.9289,0,0,1-.1227-.9946V50.7h4.2791v-.37a3.2741,3.2741,0,0,0-.6226-2.094,2.3663,2.3663,0,0,0-1.9618-.8186,2.5235,2.5235,0,0,0-2.1827.9982,4.5675,4.5675,0,0,0-.7135,2.7481c.02,2.829,1.233,4.2544,3.612,4.2664a5.2813,5.2813,0,0,0,1.7054-.2279v-.899Zm-4.076-4.52a1.9918,1.9918,0,0,1,.4395-.9333,1.3659,1.3659,0,0,1,.4807-.3672,1.5249,1.5249,0,0,1,.6886-.1511,1.5029,1.5029,0,0,1,.7075.1511,1.2045,1.2045,0,0,1,.4215.3672,1.3558,1.3558,0,0,1,.2387.4629,2.0241,2.0241,0,0,1,.0614.47Zm6.4134,5.4693h1.0405V52.0788a4.5452,4.5452,0,0,1,.6414-2.5335,2.1134,2.1134,0,0,1,1.8686-.971V47.418a2.8324,2.8324,0,0,0-1.0585.1747,2.217,2.217,0,0,0-.7215.456,2.6155,2.6155,0,0,0-.4348.5422,4.0442,4.0442,0,0,0-.2658.4878h-.03V47.5952h-1.0405v7.6579Zm4.9181,0h1.0454V52.0953a5.9421,5.9421,0,0,1,.489-2.3257,2.6539,2.6539,0,0,1,.6247-.9191,1.184,1.184,0,0,1,.8363-.3565,1.03,1.03,0,0,1,.673.1984,1.0573,1.0573,0,0,1,.3426.5445,3.27,3.27,0,0,1,.1136.7856c.0094.3047.0153.6282.0153.97v4.26H213.61V52.0953a5.9608,5.9608,0,0,1,.4959-2.3257,2.768,2.768,0,0,1,.6249-.9191,1.1478,1.1478,0,0,1,.8292-.3565,1.0374,1.0374,0,0,1,.672.1984,1.0194,1.0194,0,0,1,.3436.5445,3.273,3.273,0,0,1,.1123.769c.0118.3161.0167.6447.0167.987v4.26h1.0451V49.7839a2.8035,2.8035,0,0,0-.4878-1.6736,1.72,1.72,0,0,0-1.4752-.6922,1.93,1.93,0,0,0-.87.1724,2.2324,2.2324,0,0,0-.6461.4667,2.518,2.518,0,0,0-.4158.57,5.0737,5.0737,0,0,0-.2444.5277h-.03a1.9154,1.9154,0,0,0-.4963-1.2624,1.9778,1.9778,0,0,0-1.4374-.4748,1.931,1.931,0,0,0-.927.2045,1.7846,1.7846,0,0,0-.6307.52,3.5881,3.5881,0,0,0-.37.6437,3.4506,3.4506,0,0,0-.2116.574h-.0294V47.5952H208.429v7.6579Zm15.7643,0h1.0112V49.8769a5.9815,5.9815,0,0,0-.0462-.8148,1.917,1.917,0,0,0-1.07-1.4244,3.2854,3.2854,0,0,0-1.3677-.22,3.7941,3.7941,0,0,0-1.2627.1747,2.0052,2.0052,0,0,0-.8125.5175,2.0717,2.0717,0,0,0-.4345.6945,2.43,2.43,0,0,0-.1489.7558H221.23a1.2772,1.2772,0,0,1,1.5236-1.2283,1.69,1.69,0,0,1,.8278.1984,1.1142,1.1142,0,0,1,.5338.8718,10.9907,10.9907,0,0,1,.0486,1.4618,3.8753,3.8753,0,0,1-.7347.0476,5.4743,5.4743,0,0,0-1.0749.1111,4.493,4.493,0,0,0-1.1776.4074,2.66,2.66,0,0,0-.9223.72,1.723,1.723,0,0,0-.3756,1.137c.0237,1.4023.6968,2.1429,2.0008,2.1429a2.614,2.614,0,0,0,1.5956-.4692,2.962,2.962,0,0,0,.45-.4,1.7836,1.7836,0,0,0,.2385-.3215h.03v1.0132Zm-.03-3.4767a4.6954,4.6954,0,0,1-.0614.93,3.1036,3.1036,0,0,1-.2232.6142,2.0891,2.0891,0,0,1-.72.8715,1.7894,1.7894,0,0,1-1.0217.3248,1.03,1.03,0,0,1-.7217-.2927,1.06,1.06,0,0,1-.33-.826,1.2118,1.2118,0,0,1,.2836-.8174,1.82,1.82,0,0,1,.66-.48,3.1979,3.1979,0,0,1,.7983-.26,4.6129,4.6129,0,0,1,.7051-.0638Zm3.7784,3.4767h1.0405V52.0953a5.4515,5.4515,0,0,1,.5492-2.3257,2.89,2.89,0,0,1,.6566-.9191,1.3046,1.3046,0,0,1,.9094-.3565.9552.9552,0,0,1,.6414.1984,1.0587,1.0587,0,0,1,.326.5445,3.3406,3.3406,0,0,1,.1074.7856q.0162.457.0167.97v4.26H233.23V49.7839a2.8737,2.8737,0,0,0-.4618-1.6736,1.6566,1.6566,0,0,0-1.4374-.6922,2.3,2.3,0,0,0-1.0264.2045,1.8326,1.8326,0,0,0-.6672.52,2.9961,2.9961,0,0,0-.3863.6437c-.0945.2152-.1771.4051-.2363.574h-.03V47.5952h-1.0429v7.6579Zm7.5933-3.4767H240.26V50.7027h-4.7244v1.0737Zm7.0736,3.4767h2.85A4.1911,4.1911,0,0,0,247.84,54.61a2.6745,2.6745,0,0,0,1.0429-2.3646,3.5845,3.5845,0,0,0-.2009-1.3357,2.3669,2.3669,0,0,0-.5171-.8339,2.2168,2.2168,0,0,0-.6733-.4857,3.4744,3.4744,0,0,0-.6886-.2065v-.0366c.08-.0333.2031-.0923.37-.1747a2.0533,2.0533,0,0,0,.5126-.383,2.2816,2.2816,0,0,0,.4772-.7568,2.9512,2.9512,0,0,0,.2008-1.1444,2.6158,2.6158,0,0,0-.81-2.06,3.0915,3.0915,0,0,0-2.1046-.6757h-2.84V55.2532ZM243.81,45.18h1.22a3.6458,3.6458,0,0,1,1.3995.2622,1.0756,1.0756,0,0,1,.5257.5315,2.1026,2.1026,0,0,1,.2066.9921,2.13,2.13,0,0,1-.2528,1.1259,1.7567,1.7567,0,0,1-1.0133.7451,2.7379,2.7379,0,0,1-.3849.08c-.1288.0155-.2435.0071-.3437.0168-.1194.0117-.2234.0318-.3142.0318H243.81V45.18Zm0,4.81h1.5532a2.496,2.496,0,0,1,1.6571.5374,1.989,1.989,0,0,1,.6566,1.6,2.1089,2.1089,0,0,1-.2847,1.1737,1.78,1.78,0,0,1-.7015.6335,2.72,2.72,0,0,1-.8185.2276,5.4208,5.4208,0,0,1-.6544.0654H243.81V49.9894Zm11.0587,5.2638h1.011V49.8769a5.96,5.96,0,0,0-.046-.8148,1.9178,1.9178,0,0,0-1.07-1.4244,3.29,3.29,0,0,0-1.3677-.22,3.7941,3.7941,0,0,0-1.2627.1747,2.0043,2.0043,0,0,0-.8125.5175,2.0807,2.0807,0,0,0-.4348.6945,2.4774,2.4774,0,0,0-.15.7558h1.1693a1.2778,1.2778,0,0,1,1.5237-1.2283,1.6941,1.6941,0,0,1,.828.1984,1.1184,1.1184,0,0,1,.5338.8718,11.0141,11.0141,0,0,1,.0484,1.4618,3.8766,3.8766,0,0,1-.7348.0476,5.4926,5.4926,0,0,0-1.0759.1111,4.5,4.5,0,0,0-1.1763.4074,2.6565,2.6565,0,0,0-.9224.72,1.7155,1.7155,0,0,0-.3756,1.137c.0235,1.4023.6968,2.1429,2.0007,2.1429a2.6082,2.6082,0,0,0,1.5946-.4692,2.94,2.94,0,0,0,.4513-.4,1.7774,1.7774,0,0,0,.2385-.3215h.03v1.0132Zm-.03-3.4767a4.6854,4.6854,0,0,1-.0614.93,3.17,3.17,0,0,1-.2233.6142,2.0875,2.0875,0,0,1-.7206.8715,1.79,1.79,0,0,1-1.0227.3248,1.0269,1.0269,0,0,1-.7206-.2927,1.0608,1.0608,0,0,1-.33-.826,1.211,1.211,0,0,1,.2846-.8174,1.8219,1.8219,0,0,1,.66-.48,3.1972,3.1972,0,0,1,.7987-.26,4.61,4.61,0,0,1,.705-.0638Zm3.8738,3.4767h1.0407V44.1521h-1.0407V55.2532Zm7.2782-.8865a1.56,1.56,0,0,1-.724.15,1.2471,1.2471,0,0,1-.6274-.15.9925.9925,0,0,1-.3885-.3225,1.5657,1.5657,0,0,1-.1984-.8174V48.5092h2v-.914h-2V45.1208h0l-1.0405.6907v1.7838H261.8v.914h1.2131v4.9418c0,1.33.6484,1.988,2.042,1.98a5.3835,5.3835,0,0,0,.9368-.0865v-.9776Zm1.9606.8865h1.0393V47.5952h-1.0393v7.6579Zm-.1831-9.6553h1.3995V44.1521h-1.3995v1.4458Zm8.7849,8.752a3.0332,3.0332,0,0,1-.6388.1183c-.2291.0211-.4157.0483-.5636.0483a2.885,2.885,0,0,1-1.4844-.3545,2.5232,2.5232,0,0,1-.899-.8713,3.4086,3.4086,0,0,1-.4393-1.14,6.4028,6.4028,0,0,1-.124-1.147,4.1136,4.1136,0,0,1,.3922-1.7835,1.4373,1.4373,0,0,1,1.3725-.8881,1.14,1.14,0,0,1,1.0545.4888,2.0737,2.0737,0,0,1,.2754,1.1068h1.25a2.792,2.792,0,0,0-.5068-1.7235,2.3777,2.3777,0,0,0-2.0266-.7863,2.6039,2.6039,0,0,0-2.2844,1.03,4.6593,4.6593,0,0,0-.7264,2.7972c.0272,2.7743,1.3087,4.1725,3.8093,4.1858a4.6692,4.6692,0,0,0,1.54-.2113v-.87Zm12.7089-.8631h0a4.5017,4.5017,0,0,1-.8765.5445,3.6685,3.6685,0,0,1-1.6865.3718,2.3971,2.3971,0,0,1-1.5768-.5137,3.219,3.219,0,0,1-.9522-1.2319,6.4688,6.4688,0,0,1-.45-1.5755,10.0587,10.0587,0,0,1-.1241-1.5239,11.4467,11.4467,0,0,1,.1241-1.6358,6.1256,6.1256,0,0,1,.405-1.45,2.2133,2.2133,0,0,1,2.2041-1.4692,1.8082,1.8082,0,0,1,1.4668.5918,2.3484,2.3484,0,0,1,.5032,1.5719h1.3631a3.1548,3.1548,0,0,0-.8588-2.2771,3.2437,3.2437,0,0,0-2.47-.9145,3.3829,3.3829,0,0,0-3.177,1.6739,7.7349,7.7349,0,0,0-.8741,3.8445,11.1781,11.1781,0,0,0,.2043,2.06,6.6248,6.6248,0,0,0,.6542,1.9145,3.9337,3.9337,0,0,0,1.2756,1.3972,3.4685,3.4685,0,0,0,1.9926.5658,5.66,5.66,0,0,0,1.872-.2683c.2256-.0814.4276-.1439.5917-.2065.1549-.0577.2824-.1183.3887-.1689v-1.3Zm2.13,1.7665h1.0405V52.0953a5.4534,5.4534,0,0,1,.5492-2.3257,2.9058,2.9058,0,0,1,.6568-.9191,1.3037,1.3037,0,0,1,.9094-.3565.9555.9555,0,0,1,.6414.1984,1.0626,1.0626,0,0,1,.3272.5445,3.4722,3.4722,0,0,1,.1074.7856q.016.457.0153.97v4.26H296.68V49.7839A2.8715,2.8715,0,0,0,296.22,48.11a1.6592,1.6592,0,0,0-1.4374-.6922,2.3036,2.3036,0,0,0-1.0274.2045,1.81,1.81,0,0,0-.6673.5147,2.993,2.993,0,0,0-.3864.6381c-.0945.2146-.1771.4049-.2361.5714h-.03V44.1521h-1.0428V55.2532Zm11.7425,0h1.01V49.8769a5.9281,5.9281,0,0,0-.045-.8148,1.8742,1.8742,0,0,0-.3246-.7963,1.853,1.853,0,0,0-.7453-.6282,3.29,3.29,0,0,0-1.3677-.22,3.7936,3.7936,0,0,0-1.2627.1747,1.9953,1.9953,0,0,0-.8127.5175,2.0807,2.0807,0,0,0-.4348.6945,2.4768,2.4768,0,0,0-.15.7558h1.1691a1.2775,1.2775,0,0,1,1.5226-1.2283,1.6951,1.6951,0,0,1,.8292.1984,1.1184,1.1184,0,0,1,.5338.8718,11.0358,11.0358,0,0,1,.0484,1.4618,3.889,3.889,0,0,1-.7346.0476,5.4931,5.4931,0,0,0-1.0761.1111,4.5,4.5,0,0,0-1.1763.4074,2.6484,2.6484,0,0,0-.9224.72,1.7156,1.7156,0,0,0-.3757,1.137c.0237,1.4023.6971,2.1429,2,2.1429a2.6122,2.6122,0,0,0,1.5957-.4692,2.9794,2.9794,0,0,0,.451-.4,1.8438,1.8438,0,0,0,.2387-.3215h.0294v1.0132Zm-.0294-3.4767a4.6734,4.6734,0,0,1-.0626.93,3.0826,3.0826,0,0,1-.2221.6142,2.0812,2.0812,0,0,1-.7216.8715,1.7864,1.7864,0,0,1-1.0216.3248,1.0318,1.0318,0,0,1-.7217-.2927,1.0641,1.0641,0,0,1-.3295-.826,1.2054,1.2054,0,0,1,.2847-.8174,1.8091,1.8091,0,0,1,.66-.48,3.183,3.183,0,0,1,.7985-.26,4.61,4.61,0,0,1,.7051-.0638Zm3.627,3.4767h1.0466V52.0953a5.9423,5.9423,0,0,1,.4878-2.3257,2.6733,2.6733,0,0,1,.6249-.9191,1.1861,1.1861,0,0,1,.8362-.3565,1.0309,1.0309,0,0,1,.6732.1984,1.067,1.067,0,0,1,.3438.5445,3.346,3.346,0,0,1,.1122.7856q.0158.457.0165.97v4.26h1.0394V52.0953a5.961,5.961,0,0,1,.496-2.3257,2.7851,2.7851,0,0,1,.6249-.9191,1.1478,1.1478,0,0,1,.8291-.3565,1.0389,1.0389,0,0,1,.6732.1984,1.0107,1.0107,0,0,1,.3426.5445,3.338,3.338,0,0,1,.1134.769q.016.4742.0154.987v4.26h1.0465V49.7839a2.8041,2.8041,0,0,0-.4892-1.6736,1.719,1.719,0,0,0-1.474-.6922,1.9316,1.9316,0,0,0-.8715.1724,2.2324,2.2324,0,0,0-.6461.4667,2.5136,2.5136,0,0,0-.4157.57,5.0776,5.0776,0,0,0-.2445.5277h-.03a1.9159,1.9159,0,0,0-.4962-1.2624,1.9768,1.9768,0,0,0-1.4361-.4748,1.936,1.936,0,0,0-.9284.2045,1.7869,1.7869,0,0,0-.6307.52,3.65,3.65,0,0,0-.37.6437,3.4392,3.4392,0,0,0-.2116.574h-.0294V47.5952h-1.049v7.6579ZM319.63,44.1521H318.59V52.1a7.39,7.39,0,0,0,.0757.912,3.5926,3.5926,0,0,0,.3272,1.1149,2.2546,2.2546,0,0,0,.8422.8965,2.73,2.73,0,0,0,1.5259.4074,2.5369,2.5369,0,0,0,2.2868-1.148,5.1912,5.1912,0,0,0,.6814-2.78,6.5471,6.5471,0,0,0-.5468-2.797A2.1619,2.1619,0,0,0,321.68,47.418a1.9405,1.9405,0,0,0-.8.1429,1.8613,1.8613,0,0,0-.9817.841,2.3454,2.3454,0,0,0-.2277.4664h-.04V44.1521Zm0,7.5829a5.6962,5.6962,0,0,1,.4452-2.27,2.3005,2.3005,0,0,1,.5825-.8232,1.2775,1.2775,0,0,1,1.6274-.0331,1.7521,1.7521,0,0,1,.4962.738,6.0811,6.0811,0,0,1,.346,2.1284,5.2045,5.2045,0,0,1-.392,2.0729,1.4493,1.4493,0,0,1-1.4079.9684,1.2541,1.2541,0,0,1-.9083-.3248,1.9552,1.9552,0,0,1-.521-.7535,4.2314,4.2314,0,0,1-.1984-.9165,7.02,7.02,0,0,1-.07-.7866Zm11.7108,2.5688c-.1583.03-.34.0765-.5506.1322a3.9457,3.9457,0,0,1-.9248.08,2.1655,2.1655,0,0,1-1.2979-.3863,2.683,2.683,0,0,1-.8067-.8718,3.9079,3.9079,0,0,1-.4135-1.1075,4.9289,4.9289,0,0,1-.1227-.9946V50.7h4.2791v-.37a3.2741,3.2741,0,0,0-.6226-2.094,2.3663,2.3663,0,0,0-1.9618-.8186,2.5232,2.5232,0,0,0-2.1825.9982,4.5666,4.5666,0,0,0-.7135,2.7481c.02,2.829,1.233,4.2544,3.6119,4.2664a5.2827,5.2827,0,0,0,1.7056-.2279v-.899Zm-4.076-4.52a1.9923,1.9923,0,0,1,.4392-.9333,1.368,1.368,0,0,1,.4809-.3672,1.5235,1.5235,0,0,1,.6884-.1511,1.5026,1.5026,0,0,1,.7075.1511,1.2049,1.2049,0,0,1,.4217.3672,1.3531,1.3531,0,0,1,.2385.4629,2.0181,2.0181,0,0,1,.0615.47Zm6.4134,5.4693h1.0405V52.0788a4.5442,4.5442,0,0,1,.6414-2.5335,2.1128,2.1128,0,0,1,1.8684-.971V47.418a2.8317,2.8317,0,0,0-1.0583.1747,2.2163,2.2163,0,0,0-.7216.456,2.6155,2.6155,0,0,0-.4348.5422,4.08,4.08,0,0,0-.2658.4878h-.0294V47.5952h-1.0405v7.6579Zm11.713.1775a2.6085,2.6085,0,0,0,2.3669-1.1777,5.2119,5.2119,0,0,0,.6816-2.812,5.343,5.343,0,0,0-.6816-2.8666,2.5851,2.5851,0,0,0-2.3669-1.1564,2.5282,2.5282,0,0,0-2.3138,1.1564,5.2973,5.2973,0,0,0-.698,2.8666,5.1606,5.1606,0,0,0,.698,2.812,2.55,2.55,0,0,0,2.3138,1.1777Zm-1.8107-4.0039a4.59,4.59,0,0,1,.4665-2.2677,1.4852,1.4852,0,0,1,1.3442-.8268,1.5323,1.5323,0,0,1,1.3973.8268,4.6216,4.6216,0,0,1,.45,2.2677,4.6328,4.6328,0,0,1-.45,2.2629,1.5183,1.5183,0,0,1-1.3973.8268,1.4694,1.4694,0,0,1-1.3442-.8268,4.6026,4.6026,0,0,1-.4665-2.2629Zm7.5036,3.8264h1.0405V48.5092h2.139v-.914h-2.139v-.8339a2.075,2.075,0,0,1,.33-1.26,1.443,1.443,0,0,1,1.2308-.4817,2.5807,2.5807,0,0,1,1.0808.2052v-.9789a4.9908,4.9908,0,0,0-1.2581-.1419,2.2388,2.2388,0,0,0-1.8957.7406,2.7175,2.7175,0,0,0-.528,1.6892v1.0618H349.835v.914h1.2494v6.7439Zm15.3108-1.7665h0a4.5279,4.5279,0,0,1-.8774.5445,3.6706,3.6706,0,0,1-1.6866.3718,2.3937,2.3937,0,0,1-1.5756-.5137,3.223,3.223,0,0,1-.9533-1.2319,6.5086,6.5086,0,0,1-.45-1.5755,10.0469,10.0469,0,0,1-.1228-1.5239,11.6331,11.6331,0,0,1,.1228-1.6358,6.1137,6.1137,0,0,1,.4051-1.45,2.214,2.214,0,0,1,2.2039-1.4692,1.8084,1.8084,0,0,1,1.467.5918,2.3509,2.3509,0,0,1,.5043,1.5719h1.3617a3.16,3.16,0,0,0-.8574-2.2771,3.2477,3.2477,0,0,0-2.47-.9145,3.3841,3.3841,0,0,0-3.1786,1.6739,7.7376,7.7376,0,0,0-.8738,3.8445,11.2668,11.2668,0,0,0,.2043,2.06,6.663,6.663,0,0,0,.6542,1.9145,3.9333,3.9333,0,0,0,1.2755,1.3972,3.4717,3.4717,0,0,0,1.9926.5658,5.6605,5.6605,0,0,0,1.8721-.2683c.2257-.0814.4276-.1439.5929-.2065.1535-.0577.2811-.1183.3885-.1689v-1.3Zm4.6087,1.944a2.6093,2.6093,0,0,0,2.3682-1.1777,5.2131,5.2131,0,0,0,.6816-2.812,5.3534,5.3534,0,0,0-.6816-2.8666,2.587,2.587,0,0,0-2.3682-1.1564,2.53,2.53,0,0,0-2.3138,1.1564,5.3,5.3,0,0,0-.6968,2.8666,5.1605,5.1605,0,0,0,.6968,2.812,2.5529,2.5529,0,0,0,2.3138,1.1777Zm-1.8094-4.0039a4.59,4.59,0,0,1,.4665-2.2677,1.4832,1.4832,0,0,1,1.3429-.8268,1.53,1.53,0,0,1,1.3972.8268,4.6173,4.6173,0,0,1,.4513,2.2677,4.6313,4.6313,0,0,1-.4513,2.2629,1.5166,1.5166,0,0,1-1.3972.8268,1.4689,1.4689,0,0,1-1.3429-.8268,4.6026,4.6026,0,0,1-.4665-2.2629Zm6.9177,3.8264h1.0465V52.0953a5.94,5.94,0,0,1,.4879-2.3257,2.6892,2.6892,0,0,1,.6249-.9191,1.1861,1.1861,0,0,1,.8362-.3565,1.03,1.03,0,0,1,.673.1984,1.068,1.068,0,0,1,.344.5445,3.346,3.346,0,0,1,.1122.7856q.0158.457.0164.97v4.26h1.0407V52.0953a5.9589,5.9589,0,0,1,.4948-2.3257,2.7722,2.7722,0,0,1,.626-.9191,1.1434,1.1434,0,0,1,.828-.3565,1.0391,1.0391,0,0,1,.6732.1984,1.0122,1.0122,0,0,1,.3426.5445,3.3518,3.3518,0,0,1,.1134.769q.0158.4742.0154.987v4.26h1.0465V49.7839a2.805,2.805,0,0,0-.4892-1.6736,1.7174,1.7174,0,0,0-1.474-.6922,1.9352,1.9352,0,0,0-.8715.1724,2.2365,2.2365,0,0,0-.6462.4667,2.513,2.513,0,0,0-.4156.57,4.7932,4.7932,0,0,0-.2434.5277h-.0308a1.9146,1.9146,0,0,0-.4962-1.2624,1.9765,1.9765,0,0,0-1.436-.4748,1.9357,1.9357,0,0,0-.9284.2045,1.7721,1.7721,0,0,0-.63.52,3.6107,3.6107,0,0,0-.3708.6437,3.4359,3.4359,0,0,0-.2113.574h-.03V47.5952h-1.0489v7.6579Zm11.9163,0h1.0465V52.0953a5.9423,5.9423,0,0,1,.4878-2.3257,2.6872,2.6872,0,0,1,.6247-.9191,1.1861,1.1861,0,0,1,.8362-.3565,1.0317,1.0317,0,0,1,.6734.1984,1.06,1.06,0,0,1,.3437.5445,3.3265,3.3265,0,0,1,.112.7856q.0162.457.0167.97v4.26H393.21V52.0953a5.9449,5.9449,0,0,1,.4959-2.3257,2.77,2.77,0,0,1,.6249-.9191,1.144,1.144,0,0,1,.828-.3565,1.0393,1.0393,0,0,1,.6733.1984,1.02,1.02,0,0,1,.3437.5445,3.3977,3.3977,0,0,1,.112.769q.0162.4742.0154.987v4.26H397.35V49.7839a2.8044,2.8044,0,0,0-.4878-1.6736,1.7213,1.7213,0,0,0-1.4753-.6922,1.9361,1.9361,0,0,0-.8717.1724,2.2352,2.2352,0,0,0-.646.4667,2.5488,2.5488,0,0,0-.4157.57,5.0428,5.0428,0,0,0-.2434.5277h-.0306a1.9227,1.9227,0,0,0-.4949-1.2624,1.9822,1.9822,0,0,0-1.4374-.4748,1.94,1.94,0,0,0-.9285.2045,1.7862,1.7862,0,0,0-.63.52,3.6739,3.6739,0,0,0-.3708.6437,3.5669,3.5669,0,0,0-.2115.574h-.0294V47.5952h-1.0489v7.6579Zm16.87-.9494c-.1583.03-.34.0765-.55.1322a3.9464,3.9464,0,0,1-.9248.08,2.165,2.165,0,0,1-1.2979-.3863,2.6834,2.6834,0,0,1-.8068-.8718,3.9079,3.9079,0,0,1-.4135-1.1075,4.938,4.938,0,0,1-.1227-.9946V50.7h4.2792v-.37a3.2827,3.2827,0,0,0-.6213-2.094,2.3709,2.3709,0,0,0-1.9632-.8186,2.525,2.525,0,0,0-2.1827.9982,4.5684,4.5684,0,0,0-.7134,2.7481c.02,2.829,1.233,4.2544,3.6119,4.2664a5.2811,5.2811,0,0,0,1.7056-.2279v-.899Zm-4.0762-4.52a1.993,1.993,0,0,1,.4395-.9333,1.3675,1.3675,0,0,1,.4808-.3672,1.5243,1.5243,0,0,1,.6884-.1511,1.5031,1.5031,0,0,1,.7076.1511,1.2067,1.2067,0,0,1,.4215.3672,1.3531,1.3531,0,0,1,.2385.4629,2.0181,2.0181,0,0,1,.0615.47Zm6.4146,5.4693h1.04V52.0788a4.5442,4.5442,0,0,1,.6414-2.5335,2.1132,2.1132,0,0,1,1.8686-.971V47.418a2.8324,2.8324,0,0,0-1.0585.1747,2.2157,2.2157,0,0,0-.7215.456,2.6071,2.6071,0,0,0-.4348.5422,4.0442,4.0442,0,0,0-.2658.4878h-.03V47.5952h-1.04v7.6579Zm-58.7519,5.2442h1.4009V59.0531h-1.4009v1.4443Zm.1831,9.6556h1.0405V62.496H348.668v7.6569Zm-8.1412,0h1.0405V66.9949a5.4507,5.4507,0,0,1,.55-2.3244,2.8584,2.8584,0,0,1,.6566-.92,1.3077,1.3077,0,0,1,.9083-.3563.9517.9517,0,0,1,.6414.1981,1.0706,1.0706,0,0,1,.3272.5447,3.4047,3.4047,0,0,1,.1073.7853c.0108.3049.0154.6284.0154.9707v4.26h1.0405v-5.47a2.8732,2.8732,0,0,0-.4607-1.6734,1.6576,1.6576,0,0,0-1.4374-.691,2.294,2.294,0,0,0-1.0274.2032,1.8407,1.8407,0,0,0-.6673.5211,3.0451,3.0451,0,0,0-.3863.6437c-.0932.2146-.1773.4039-.2351.574H341.57V62.496h-1.0428v7.6569Zm-3.7772-3.477a4.67,4.67,0,0,1-.0627.9308,3.12,3.12,0,0,1-.2219.6142,2.0859,2.0859,0,0,1-.7219.87,1.7865,1.7865,0,0,1-1.0217.325A1.0356,1.0356,0,0,1,334,69.1245a1.0659,1.0659,0,0,1-.3295-.827,1.2049,1.2049,0,0,1,.2845-.8171,1.8178,1.8178,0,0,1,.66-.4794,3.1481,3.1481,0,0,1,.7983-.2614,4.6733,4.6733,0,0,1,.7051-.0636Zm.03,3.477h1.01V64.778a5.9653,5.9653,0,0,0-.0448-.8161,1.8776,1.8776,0,0,0-.3249-.796,1.8372,1.8372,0,0,0-.7453-.6274,3.2649,3.2649,0,0,0-1.3677-.22,3.79,3.79,0,0,0-1.2627.1737,2.0264,2.0264,0,0,0-.8125.5173,2.0732,2.0732,0,0,0-.4346.6958,2.4692,2.4692,0,0,0-.15.7558h1.1693a1.276,1.276,0,0,1,1.5223-1.2283,1.7008,1.7008,0,0,1,.8293.1984,1.1168,1.1168,0,0,1,.5338.8718,10.9966,10.9966,0,0,1,.0484,1.4608,3.8682,3.8682,0,0,1-.7347.0483,5.5406,5.5406,0,0,0-1.0759.11,4.5571,4.5571,0,0,0-1.1765.4079,2.6378,2.6378,0,0,0-.9224.7212,1.7109,1.7109,0,0,0-.3756,1.1363c.0237,1.4033.6968,2.1426,2,2.1426a2.6055,2.6055,0,0,0,1.5957-.4687,2.9141,2.9141,0,0,0,.45-.3993,1.7489,1.7489,0,0,0,.24-.3227h.03v1.0134Zm-7.5758,0h1.0407V62.496h-1.0407v3.1665a5.544,5.544,0,0,1-.52,2.301,2.9876,2.9876,0,0,1-.6413.9059,1.2951,1.2951,0,0,1-.9392.3858.8386.8386,0,0,1-.6081-.2228,1.2305,1.2305,0,0,1-.3426-.5493,3.4451,3.4451,0,0,1-.1076-.7879c-.0164-.3059-.0318-.6177-.0318-.9389v-4.26h-1.0418V67.96a2.8513,2.8513,0,0,0,.4782,1.6571,1.619,1.619,0,0,0,1.4127.7131,2.3662,2.3662,0,0,0,1.0489-.2408,1.8645,1.8645,0,0,0,.6673-.5124,2.8588,2.8588,0,0,0,.3886-.6378c.0909-.2116.1582-.3911.2042-.5363h.0318v1.75Zm-12.2113,0h1.0405V66.9949a5.4373,5.4373,0,0,1,.55-2.3244,2.8625,2.8625,0,0,1,.6568-.92,1.3058,1.3058,0,0,1,.9084-.3563.9553.9553,0,0,1,.6413.1981,1.07,1.07,0,0,1,.3272.5447,3.4745,3.4745,0,0,1,.1076.7853q.0158.4574.0154.9707v4.26H322.28v-5.47a2.8742,2.8742,0,0,0-.4607-1.6734,1.6576,1.6576,0,0,0-1.4374-.691,2.312,2.312,0,0,0-1.0276.2032,1.8341,1.8341,0,0,0-.6674.515,3.0387,3.0387,0,0,0-.386.6391c-.0945.2146-.1773.4036-.2364.57h-.0294V59.0531H316.992v11.1Zm-1.8639-.8868a1.5459,1.5459,0,0,1-.7239.15,1.2488,1.2488,0,0,1-.6273-.15.9774.9774,0,0,1-.3885-.3227,1.5723,1.5723,0,0,1-.1985-.8174V63.41h2V62.496h-2V60.0205h0l-1.0405.692V62.496h-1.2118V63.41h1.2118v4.9416c0,1.3288.6482,1.9867,2.0433,1.9783a5.4894,5.4894,0,0,0,.9354-.0849v-.9791Zm-7.46-8.7688h1.4008V59.0531h-1.4008v1.4443Zm.1831,9.6556h1.0405V62.496h-1.0405v7.6569Zm-6.5589,0h5.06V69.1265h-3.8588V59.0531h-1.2013v11.1ZM293.36,72.13h1.0405l.5469-3.5823h-1.3914L293.36,72.13Zm-3.3754-5.4543a4.7237,4.7237,0,0,1-.0614.9308,3.18,3.18,0,0,1-.2223.6142,2.1012,2.1012,0,0,1-.7215.87,1.79,1.79,0,0,1-1.0217.325,1.0336,1.0336,0,0,1-.7216-.2917,1.0659,1.0659,0,0,1-.3295-.827,1.2044,1.2044,0,0,1,.2846-.8171,1.8213,1.8213,0,0,1,.6591-.4794,3.1567,3.1567,0,0,1,.8-.2614,4.647,4.647,0,0,1,.7052-.0636Zm.03,3.477h1.0109V64.778a5.7828,5.7828,0,0,0-.046-.8161,1.8753,1.8753,0,0,0-.3236-.796,1.8449,1.8449,0,0,0-.7453-.6274,3.2645,3.2645,0,0,0-1.3677-.22,3.7931,3.7931,0,0,0-1.2639.1737,2.0205,2.0205,0,0,0-1.2459,1.2131,2.3959,2.3959,0,0,0-.15.7558h1.1693a1.2743,1.2743,0,0,1,1.5225-1.2283,1.6954,1.6954,0,0,1,.8278.1984,1.11,1.11,0,0,1,.5339.8718,10.9948,10.9948,0,0,1,.0486,1.4608,3.8565,3.8565,0,0,1-.7348.0483,5.5327,5.5327,0,0,0-1.0749.11,4.5659,4.5659,0,0,0-1.1775.4079,2.66,2.66,0,0,0-.9224.7212,1.7183,1.7183,0,0,0-.3755,1.1363c.0235,1.4033.6967,2.1426,2.0008,2.1426a2.6042,2.6042,0,0,0,1.5954-.4687,2.9614,2.9614,0,0,0,.45-.3993,1.7421,1.7421,0,0,0,.2387-.3227h.03v1.0134Zm-7.663-9.6556h1.3994V59.0531h-1.3994v1.4443Zm.1817,9.6556h1.0405V62.496H282.533v7.6569Zm-5.2713,0h1.0726l2.5074-7.6569H279.71l-1.8991,6.0486h-.0319l-2.18-6.0486h-1.14l2.8027,7.6569Zm-3.54-.8868a1.5455,1.5455,0,0,1-.7239.15,1.25,1.25,0,0,1-.6273-.15.98.98,0,0,1-.3886-.3227,1.5746,1.5746,0,0,1-.1984-.8174V63.41h2V62.496h-2V60.0205h0l-1.04.692V62.496H269.53V63.41h1.2131v4.9416c0,1.3288.6484,1.9867,2.042,1.9783a5.5026,5.5026,0,0,0,.9365-.0849v-.9791Zm-7.2721-2.59a4.7162,4.7162,0,0,1-.0613.9308,3.1107,3.1107,0,0,1-.2232.6142,2.0923,2.0923,0,0,1-.72.87,1.79,1.79,0,0,1-1.0217.325,1.0338,1.0338,0,0,1-.7216-.2917,1.0621,1.0621,0,0,1-.33-.827,1.21,1.21,0,0,1,.2836-.8171,1.8234,1.8234,0,0,1,.66-.4794,3.1637,3.1637,0,0,1,.7984-.2614,4.6719,4.6719,0,0,1,.7051-.0636Zm.03,3.477H267.49V64.778a5.7828,5.7828,0,0,0-.046-.8161,1.874,1.874,0,0,0-.3237-.796,1.8406,1.8406,0,0,0-.7463-.6274,3.2558,3.2558,0,0,0-1.3666-.22,3.7913,3.7913,0,0,0-1.2638.1737,2.021,2.021,0,0,0-1.2461,1.2131,2.3992,2.3992,0,0,0-.15.7558h1.1682a1.5437,1.5437,0,0,1,.3459-.85,1.5248,1.5248,0,0,1,1.1776-.3779,1.6952,1.6952,0,0,1,.8279.1984,1.113,1.113,0,0,1,.5339.8718,10.9984,10.9984,0,0,1,.0483,1.4608,3.8525,3.8525,0,0,1-.7345.0483,5.5339,5.5339,0,0,0-1.075.11,4.5633,4.5633,0,0,0-1.1773.4079,2.6619,2.6619,0,0,0-.9227.7212,1.72,1.72,0,0,0-.3755,1.1363c.0237,1.4033.6969,2.1426,2.0008,2.1426a2.6077,2.6077,0,0,0,1.5957-.4687,2.9582,2.9582,0,0,0,.45-.3993,1.7285,1.7285,0,0,0,.2385-.3227h.03v1.0134Zm-10.16,0h5.06V69.1265h-3.8588V59.0531H256.32v11.1ZM248.3873,72.13h1.0405l.5479-3.5823h-1.3925l-.1959,3.5823Zm-3.3758-5.4543a4.7037,4.7037,0,0,1-.0614.9308,3.1791,3.1791,0,0,1-.222.6142,2.0853,2.0853,0,0,1-.7216.87,1.79,1.79,0,0,1-1.0217.325,1.0359,1.0359,0,0,1-.7216-.2917,1.0659,1.0659,0,0,1-.3295-.827,1.2049,1.2049,0,0,1,.2845-.8171,1.8229,1.8229,0,0,1,.6592-.4794,3.1715,3.1715,0,0,1,.8-.2614,4.6762,4.6762,0,0,1,.7052-.0636Zm.03,3.477h1.011V64.778a5.7828,5.7828,0,0,0-.046-.8161,1.8593,1.8593,0,0,0-.3236-.796,1.8377,1.8377,0,0,0-.7451-.6274,3.2653,3.2653,0,0,0-1.3677-.22,3.7786,3.7786,0,0,0-1.2627.1737,2.0261,2.0261,0,0,0-.8127.5173,2.0556,2.0556,0,0,0-.4348.6958,2.443,2.443,0,0,0-.15.7558h1.1693a1.2762,1.2762,0,0,1,1.5225-1.2283,1.7039,1.7039,0,0,1,.8293.1984,1.1171,1.1171,0,0,1,.5338.8718,11.0149,11.0149,0,0,1,.0472,1.4608,3.8545,3.8545,0,0,1-.7346.0483,5.5305,5.5305,0,0,0-1.0747.11,4.5618,4.5618,0,0,0-1.1776.4079,2.66,2.66,0,0,0-.9225.7212,1.7183,1.7183,0,0,0-.3756,1.1363c.0248,1.4033.6981,2.1426,2.0009,2.1426a2.6055,2.6055,0,0,0,1.5957-.4687,2.9216,2.9216,0,0,0,.45-.3993,1.74,1.74,0,0,0,.2385-.3227h.03v1.0134Zm-7.663-9.6556h1.4V59.0531h-1.4v1.4443Zm.182,9.6556h1.0405V62.496H237.56v7.6569Zm-8.14,0H230.46V66.9949a5.4487,5.4487,0,0,1,.5492-2.3244,2.88,2.88,0,0,1,.6566-.92,1.3112,1.3112,0,0,1,.91-.3563.9554.9554,0,0,1,.6414.1981,1.0665,1.0665,0,0,1,.3259.5447,3.3361,3.3361,0,0,1,.1076.7853q.016.4574.0165.9707v4.26h1.0405v-5.47a2.8755,2.8755,0,0,0-.4617-1.6734,1.6563,1.6563,0,0,0-1.4375-.691,2.29,2.29,0,0,0-1.0264.2032,1.8465,1.8465,0,0,0-.6686.5211,2.9892,2.9892,0,0,0-.3849.6437c-.0946.2146-.1773.4039-.2361.574h-.03V62.496H229.42v7.6569Zm-7.0688-3.8254a4.589,4.589,0,0,1,.4665-2.2687,1.4846,1.4846,0,0,1,1.3441-.8258,1.531,1.531,0,0,1,1.3962.8258,5.9153,5.9153,0,0,1,0,4.5316,1.5173,1.5173,0,0,1-1.3962.8258,1.4683,1.4683,0,0,1-1.3441-.8258,4.606,4.606,0,0,1-.4665-2.2629Zm1.8106,4.0027a2.61,2.61,0,0,0,2.367-1.1762,5.2174,5.2174,0,0,0,.6814-2.8135,5.3451,5.3451,0,0,0-.6814-2.8664,2.5873,2.5873,0,0,0-2.367-1.1554,2.5317,2.5317,0,0,0-2.3149,1.1554,5.31,5.31,0,0,0-.6969,2.8664,5.1654,5.1654,0,0,0,.6969,2.8135,2.5553,2.5553,0,0,0,2.3149,1.1762Zm-4.3441-1.0641a1.55,1.55,0,0,1-.724.15,1.25,1.25,0,0,1-.6283-.15.9871.9871,0,0,1-.3887-.3227,1.5747,1.5747,0,0,1-.1985-.8174V63.41h2.0009V62.496h-2.0009V60.0205h0l-1.0405.692V62.496h-1.2118V63.41h1.2118v4.9416c0,1.3288.65,1.9867,2.0435,1.9783a5.5014,5.5014,0,0,0,.9365-.0849v-.9791Zm-7.6986-3.8267c-.2953-.1808-.607-.3273-.8928-.5007a.7874.7874,0,0,1-.04-1.4142,1.9219,1.9219,0,0,1,1.0855-.2914,4.8372,4.8372,0,0,1,1.0653.1335,3.69,3.69,0,0,1,.4206.1111,1.9622,1.9622,0,0,1,.2514.11v-1.017c-.1771-.0534-.4063-.1183-.6861-.1737a5.056,5.056,0,0,0-1.0559-.0781c-1.6865.0249-2.5358.7075-2.543,2.0269a1.6547,1.6547,0,0,0,.1667.7856,1.9332,1.9332,0,0,0,.4264.5656,3.7241,3.7241,0,0,0,.5445.3863c.1841.11.3591.235.5468.3377l.6733.37c.2434.1333.5325.2775.8467.4784a1.0907,1.0907,0,0,1-.0154,1.8387,2.44,2.44,0,0,1-1.2955.3085,4.3294,4.3294,0,0,1-1.187-.1986c-.3745-.1088-.6224-.16-.7323-.2042v.9956a7.038,7.038,0,0,0,.7748.1879,6.0648,6.0648,0,0,0,1.2436.1333c1.8026,0,2.7249-.7853,2.7485-2.3138a2.1677,2.1677,0,0,0-.1335-.8553,1.6736,1.6736,0,0,0-.4181-.5987,3.2164,3.2164,0,0,0-.561-.4311c-.1912-.1111-.41-.1844-.6058-.3062l-.6274-.3858Zm-9.1168,4.7135h5.3326V69.1265h-4.1316V64.8584h3.8056V63.8342h-3.8056V60.08h3.9959V59.0531h-5.1969v11.1Zm-12.2895,0h1.0407V66.9949a5.4522,5.4522,0,0,1,.55-2.3244,2.8605,2.8605,0,0,1,.6568-.92,1.3078,1.3078,0,0,1,.9084-.3563.9512.9512,0,0,1,.6413.1981,1.0687,1.0687,0,0,1,.327.5447,3.3969,3.3969,0,0,1,.1076.7853q.016.4574.0154.9707v4.26H196v-5.47a2.8741,2.8741,0,0,0-.46-1.6734,1.6576,1.6576,0,0,0-1.4374-.691,2.2946,2.2946,0,0,0-1.0276.2032,1.8411,1.8411,0,0,0-.6674.5211,3.039,3.039,0,0,0-.3862.6437c-.0933.2146-.1771.4039-.235.574h-.0308V62.496h-1.0429v7.6569Zm-3.9649-9.6556h1.3995V59.0531h-1.3995v1.4443Zm.1817,9.6556H187.97V62.496h-1.0407v7.6569ZM419.8819,49.7839a2.0014,2.0014,0,0,1,.4393-.9333,1.3659,1.3659,0,0,1,.4807-.3672,1.5289,1.5289,0,0,1,.6887-.1511,1.5075,1.5075,0,0,1,.7086.1511,1.2123,1.2123,0,0,1,.4205.3672,1.3621,1.3621,0,0,1,.2385.4629,2.0241,2.0241,0,0,1,.0614.47Zm4.076,4.52c-.1584.03-.34.0765-.5493.1322a3.9648,3.9648,0,0,1-.926.08,2.1682,2.1682,0,0,1-1.2981-.3863,2.6965,2.6965,0,0,1-.8066-.8718,3.9036,3.9036,0,0,1-.4134-1.1075,4.9124,4.9124,0,0,1-.123-.9946V50.7h4.2792v-.37a3.2819,3.2819,0,0,0-.6212-2.094,2.3694,2.3694,0,0,0-1.9631-.8186,2.5261,2.5261,0,0,0-2.1827.9982,4.5684,4.5684,0,0,0-.7135,2.7481c.02,2.829,1.2332,4.2544,3.6118,4.2664a5.283,5.283,0,0,0,1.7057-.2279v-.899Zm-6.8352.046a3.0362,3.0362,0,0,1-.6388.1183c-.2281.0211-.4148.0483-.5623.0483a2.8871,2.8871,0,0,1-1.4858-.3545,2.5089,2.5089,0,0,1-.8976-.8713,3.4032,3.4032,0,0,1-.4407-1.14,6.3064,6.3064,0,0,1-.1228-1.147,4.116,4.116,0,0,1,.391-1.7835,1.439,1.439,0,0,1,1.3736-.8881,1.14,1.14,0,0,1,1.0538.4888,2.0646,2.0646,0,0,1,.2762,1.1068h1.2484a2.79,2.79,0,0,0-.5053-1.7235,2.38,2.38,0,0,0-2.0282-.7863,2.6049,2.6049,0,0,0-2.2841,1.03,4.6647,4.6647,0,0,0-.7263,2.7972c.0271,2.7743,1.3086,4.1725,3.81,4.1858a4.667,4.667,0,0,0,1.5389-.2113v-.87ZM356.2981,66.6759a4.6913,4.6913,0,0,1-.0615.9308,3.1027,3.1027,0,0,1-.2232.6142,2.0914,2.0914,0,0,1-.72.87,1.79,1.79,0,0,1-1.0217.325,1.0335,1.0335,0,0,1-.7215-.2917,1.0621,1.0621,0,0,1-.33-.827,1.2094,1.2094,0,0,1,.2834-.8171,1.8266,1.8266,0,0,1,.66-.4794,3.1629,3.1629,0,0,1,.7985-.2614,4.67,4.67,0,0,1,.7051-.0636Zm.0294,3.477h1.011V64.778a5.7828,5.7828,0,0,0-.046-.8161,1.86,1.86,0,0,0-.3246-.796,1.8322,1.8322,0,0,0-.7453-.6274,3.26,3.26,0,0,0-1.3666-.22,3.7913,3.7913,0,0,0-1.2638.1737,2.02,2.02,0,0,0-.8114.5173,2.06,2.06,0,0,0-.436.6958,2.44,2.44,0,0,0-.1488.7558h1.1681a1.5432,1.5432,0,0,1,.3462-.85,1.5246,1.5246,0,0,1,1.1775-.3779,1.6963,1.6963,0,0,1,.828.1984,1.1139,1.1139,0,0,1,.5338.8718,11.0183,11.0183,0,0,1,.0484,1.4608,3.8552,3.8552,0,0,1-.7346.0483,5.5317,5.5317,0,0,0-1.0749.11,4.5651,4.5651,0,0,0-1.1776.4079,2.6626,2.6626,0,0,0-.9225.7212,1.7177,1.7177,0,0,0-.3756,1.1363c.0237,1.4033.6969,2.1426,2.0009,2.1426a2.608,2.608,0,0,0,1.5957-.4687,2.9644,2.9644,0,0,0,.45-.3993,1.7362,1.7362,0,0,0,.2387-.3227h.0294v1.0134Z"/>
    <path class="cls-1" d="M79.817,0H0V80H79.817a112.4134,112.4134,0,0,0,7.1445-40.0973C87.01,25.5177,84.6631,11.7282,79.817,0Z"/>
    <path class="cls-2" d="M173.3335,80H79.817a111.9582,111.9582,0,0,0,7.1573-40c.07-14.089-2.2723-28.25-7.1573-40h93.5164V80Z"/>
    <path class="cls-3" d="M36.5247,11.0233s-3.7689,1.5638-9.9485,4.3724c-.7159.4372-.8587,1.7209,0,1.8568l9.9485.0651c.131.3212,0,38.1391,0,38.1391l-8.3424.0107c-.6129.9577.0179,1.1714-.0153,1.2884,13.786,2.92,31.8309,21.0855,43.0279-1.195l-13.5862.131c10.87-2.91,23.8714-41.3541-17.9-44.7792V5.7167H36.5247v5.3065Zm3.1841,41.4838c-.0838.1681-.0426.116-.0684-38.64,12.3886,11.07,5.5037,35.7343.0684,38.64ZM8.8241,63.911h0c26.2984-10.2674,33.8671,22.8486,66.7,4.9749-34.29,8.4376-38.7971-22.6561-66.7-4.9749Zm46.5322-8.35-13.6645-.13c3.4523-2.9236,14.7935-11.2028,13.6645.13Zm48.3792-42.24a1.7663,1.7663,0,0,1,1.7742,1.3168l8.2169,24.0238a.91.91,0,0,1-.8729,1.3168h-2.6314a2.0608,2.0608,0,0,1-1.7976-1.3168l-1.7506-5.41H97.6328l-1.7421,5.41a2.0641,2.0641,0,0,1-1.799,1.3168H91.46a.9115.9115,0,0,1-.8728-1.3168l8.2169-24.0238a1.7661,1.7661,0,0,1,1.7741-1.3168ZM98.606,28.7554H104.64l-2.9976-9.3122L98.606,28.7554Zm67.2134-14.1167c.6542-.7273.7535-1.325-.1395-1.3168l-3.92.0224a2.8587,2.8587,0,0,0-2.6067,1.0124l-9.8907,11.03V14.6623a1.2955,1.2955,0,0,0-1.2932-1.3181h-2.6942a1.322,1.322,0,0,0-1.3228,1.3181l-.0013,24.0215A1.3194,1.3194,0,0,0,145.2752,40H147.98a1.2846,1.2846,0,0,0,1.2828-1.3166V33.0876l4.5485-5.0456,6.5775,10.6418A2.3454,2.3454,0,0,0,162.198,40h3.801c.7309,0,.9625-.589.5161-1.3166l-9.1266-14.6282,8.4309-9.417Zm-32.7155,0a1.3207,1.3207,0,0,1,1.3251-1.3168h2.6481a1.3216,1.3216,0,0,1,1.3252,1.3168l-.0036,24.0238a1.32,1.32,0,0,1-1.324,1.3158h-2.63a1.326,1.326,0,0,1-1.3346-1.3138V28.7671H122.3558l.0023,9.8954a1.32,1.32,0,0,1-1.324,1.3158h-2.647a1.3206,1.3206,0,0,1-1.3252-1.3158l.0013-24.0238a1.3208,1.3208,0,0,1,1.3252-1.3168h2.6539a1.3219,1.3219,0,0,1,1.3265,1.3168v9.664H133.11l-.0058-9.664Z"/>
  </g>
</svg>
